HIERARCHY
ROOT newVegas:Hips
{
	OFFSET 0.000000 96.479958 0.000000
	CHANNELS 6 Xposition Yposition Zposition Xrotation Yrotation Zrotation
	JOINT newVegas:Pelvis
	{
		OFFSET 0.000000 0.000000 0.000000
		CHANNELS 3 Xrotation Yrotation Zrotation
		JOINT newVegas:LeftUpLeg
		{
			OFFSET 18.735201 -5.666702 -4.541200
			CHANNELS 3 Xrotation Yrotation Zrotation
			JOINT newVegas:LeftLeg
			{
				OFFSET -0.021200 -31.938179 0.493100
				CHANNELS 3 Xrotation Yrotation Zrotation
				JOINT newVegas:LeftFoot
				{
					OFFSET 0.021200 -31.938179 -4.336299
					CHANNELS 3 Xrotation Yrotation Zrotation
					JOINT newVegas:LeftToeBase
					{
						OFFSET 0.943001 -26.722000 15.023500
						CHANNELS 3 Xrotation Yrotation Zrotation
						End Site
						{
							OFFSET 0.000000 30.670183 0.000000
						}
					}
				}
				JOINT newVegas:Left_PantLeg
				{
					OFFSET 0.663870 -9.044666 -1.108900
					CHANNELS 3 Xrotation Yrotation Zrotation
					End Site
					{
						OFFSET 1.415995 20.635357 0.000000
					}
				}
			}
		}
		JOINT newVegas:RightUpLeg
		{
			OFFSET -18.735201 -5.666702 -4.541200
			CHANNELS 3 Xrotation Yrotation Zrotation
			JOINT newVegas:RightLeg
			{
				OFFSET 0.018946 -31.938133 0.493100
				CHANNELS 3 Xrotation Yrotation Zrotation
				JOINT newVegas:RightFoot
				{
					OFFSET -0.018946 -31.938126 -4.336299
					CHANNELS 3 Xrotation Yrotation Zrotation
					JOINT newVegas:RightToeBase
					{
						OFFSET -0.943001 -26.722004 15.023500
						CHANNELS 3 Xrotation Yrotation Zrotation
						End Site
						{
							OFFSET 0.000000 30.670187 0.000000
						}
					}
				}
				JOINT newVegas:Right_PantLeg
				{
					OFFSET -0.661674 -9.044716 -1.108900
					CHANNELS 3 Xrotation Yrotation Zrotation
					End Site
					{
						OFFSET -1.415958 20.635269 0.000000
					}
				}
			}
		}
	}
	JOINT newVegas:Spine
	{
		OFFSET 0.000000 10.199997 -0.299500
		CHANNELS 3 Xrotation Yrotation Zrotation
		JOINT newVegas:Spine1
		{
			OFFSET 0.000000 11.900002 -1.516600
			CHANNELS 3 Xrotation Yrotation Zrotation
			JOINT newVegas:Spine2
			{
				OFFSET 0.000000 13.600006 -2.842500
				CHANNELS 3 Xrotation Yrotation Zrotation
				JOINT newVegas:Neck
				{
					OFFSET 0.000000 9.624100 -2.890100
					CHANNELS 3 Xrotation Yrotation Zrotation
					JOINT newVegas:Head
					{
						OFFSET 0.000000 14.068802 -1.351900
						CHANNELS 3 Xrotation Yrotation Zrotation
						JOINT newVegas:Hair_Back
						{
							OFFSET 0.000000 3.231903 -17.524799
							CHANNELS 3 Xrotation Yrotation Zrotation
							End Site
							{
								OFFSET 0.000000 19.849884 0.000000
							}
						}
						JOINT newVegas:Hair_Front
						{
							OFFSET 0.000000 31.260406 4.573800
							CHANNELS 3 Xrotation Yrotation Zrotation
							JOINT newVegas:Hair_Front1
							{
								OFFSET 0.000000 2.284103 11.993300
								CHANNELS 3 Xrotation Yrotation Zrotation
								JOINT newVegas:Hair_Front2
								{
									OFFSET 0.000000 2.284103 11.993300
									CHANNELS 3 Xrotation Yrotation Zrotation
									End Site
									{
										OFFSET 0.000000 12.208862 0.000000
									}
								}
							}
						}
						JOINT newVegas:Jowel
						{
							OFFSET 0.000000 -7.458206 6.864100
							CHANNELS 3 Xrotation Yrotation Zrotation
							End Site
							{
								OFFSET 0.000000 19.849884 0.000000
							}
						}
					}
				}
				JOINT newVegas:LeftShoulder
				{
					OFFSET 15.263000 10.923401 -0.547700
					CHANNELS 3 Xrotation Yrotation Zrotation
					JOINT newVegas:LeftArm
					{
						OFFSET 25.438599 -2.830597 -13.032500
						CHANNELS 3 Xrotation Yrotation Zrotation
						JOINT newVegas:LeftForeArm
						{
							OFFSET 29.960503 0.000000 0.000000
							CHANNELS 3 Xrotation Yrotation Zrotation
							JOINT newVegas:LeftHand
							{
								OFFSET 27.849251 0.000000 0.000000
								CHANNELS 3 Xrotation Yrotation Zrotation
								JOINT newVegas:LeftHandThumb1
								{
									OFFSET 4.487587 -3.305161 6.305391
									CHANNELS 3 Xrotation Yrotation Zrotation
									JOINT newVegas:LeftHandThumb2
									{
										OFFSET 5.480453 -3.164139 3.164143
										CHANNELS 3 Xrotation Yrotation Zrotation
										JOINT newVegas:LeftHandThumb3
										{
											OFFSET 5.159721 -2.978973 2.978967
											CHANNELS 3 Xrotation Yrotation Zrotation
											End Site
											{
												OFFSET 2.494507 5.926697 1.738678
											}
										}
									}
								}
								JOINT newVegas:LeftHandIndex1
								{
									OFFSET 18.578728 -0.527832 5.208049
									CHANNELS 3 Xrotation Yrotation Zrotation
									JOINT newVegas:LeftHandIndex2
									{
										OFFSET 3.192009 0.000000 0.000000
										CHANNELS 3 Xrotation Yrotation Zrotation
										JOINT newVegas:LeftHandIndex3
										{
											OFFSET 3.835129 0.000000 0.000000
											CHANNELS 3 Xrotation Yrotation Zrotation
											End Site
											{
												OFFSET -0.034599 3.816971 0.371180
											}
										}
									}
								}
								JOINT newVegas:LeftHandMiddle1
								{
									OFFSET 18.476105 0.000000 0.000000
									CHANNELS 3 Xrotation Yrotation Zrotation
									JOINT newVegas:LeftHandMiddle2
									{
										OFFSET 3.324875 0.000000 0.000000
										CHANNELS 3 Xrotation Yrotation Zrotation
										JOINT newVegas:LeftHandMiddle3
										{
											OFFSET 4.596550 0.000000 0.000000
											CHANNELS 3 Xrotation Yrotation Zrotation
											End Site
											{
												OFFSET 0.057701 4.578827 0.399218
											}
										}
									}
								}
								JOINT newVegas:LeftHandRing1
								{
									OFFSET 17.732719 0.121887 -4.201567
									CHANNELS 3 Xrotation Yrotation Zrotation
									JOINT newVegas:LeftHandRing2
									{
										OFFSET 2.733170 0.000000 0.000000
										CHANNELS 3 Xrotation Yrotation Zrotation
										JOINT newVegas:LeftHandRing3
										{
											OFFSET 3.178268 0.000000 0.000000
											CHANNELS 3 Xrotation Yrotation Zrotation
											End Site
											{
												OFFSET 0.119102 3.170624 0.185394
											}
										}
									}
								}
								JOINT newVegas:LeftHandPinky1
								{
									OFFSET 15.989624 -0.606689 -7.535461
									CHANNELS 3 Xrotation Yrotation Zrotation
									JOINT newVegas:LeftHandPinky2
									{
										OFFSET 2.538986 0.000000 0.000000
										CHANNELS 3 Xrotation Yrotation Zrotation
										JOINT newVegas:LeftHandPinky3
										{
											OFFSET 2.593102 0.000000 0.000000
											CHANNELS 3 Xrotation Yrotation Zrotation
											End Site
											{
												OFFSET -0.150902 2.584198 0.152708
											}
										}
									}
								}
							}
							JOINT newVegas:Left_Sleeve
							{
								OFFSET 0.267448 -0.649796 0.577675
								CHANNELS 3 Xrotation Yrotation Zrotation
								End Site
								{
									OFFSET 0.000000 15.991241 0.000000
								}
							}
							JOINT newVegas:Left_CapeC
							{
								OFFSET 15.715958 -8.608795 -6.935905
								CHANNELS 3 Xrotation Yrotation Zrotation
								JOINT newVegas:Left_CapeC1
								{
									OFFSET 0.000000 -8.688499 0.000000
									CHANNELS 3 Xrotation Yrotation Zrotation
									End Site
									{
										OFFSET 0.000000 8.688499 0.000000
									}
								}
							}
						}
						JOINT newVegas:Left_CapeB
						{
							OFFSET 26.118385 -8.608795 -7.079235
							CHANNELS 3 Xrotation Yrotation Zrotation
							JOINT newVegas:Left_CapeB1
							{
								OFFSET 0.000000 -8.688499 0.000000
								CHANNELS 3 Xrotation Yrotation Zrotation
								End Site
								{
									OFFSET 0.000000 8.688499 0.000000
								}
							}
						}
						JOINT newVegas:Left_CapeA
						{
							OFFSET 5.115639 -8.608795 -10.395809
							CHANNELS 3 Xrotation Yrotation Zrotation
							JOINT newVegas:Left_CapeA1
							{
								OFFSET 0.000000 -8.688499 0.000000
								CHANNELS 3 Xrotation Yrotation Zrotation
								End Site
								{
									OFFSET 0.000000 8.688499 0.000000
								}
							}
						}
					}
				}
				JOINT newVegas:RightShoulder
				{
					OFFSET -15.263000 10.923401 -0.547700
					CHANNELS 3 Xrotation Yrotation Zrotation
					JOINT newVegas:RightArm
					{
						OFFSET -25.438599 -2.830597 -13.032500
						CHANNELS 3 Xrotation Yrotation Zrotation
						JOINT newVegas:RightForeArm
						{
							OFFSET -29.960503 0.000000 0.000000
							CHANNELS 3 Xrotation Yrotation Zrotation
							JOINT newVegas:RightHand
							{
								OFFSET -27.849251 0.000000 0.000000
								CHANNELS 3 Xrotation Yrotation Zrotation
								JOINT newVegas:RightHandThumb1
								{
									OFFSET -4.487587 -3.305161 6.305391
									CHANNELS 3 Xrotation Yrotation Zrotation
									JOINT newVegas:RightHandThumb2
									{
										OFFSET -5.480453 -3.164139 3.164143
										CHANNELS 3 Xrotation Yrotation Zrotation
										JOINT newVegas:RightHandThumb3
										{
											OFFSET -5.159721 -2.978973 2.978967
											CHANNELS 3 Xrotation Yrotation Zrotation
											End Site
											{
												OFFSET -2.494507 5.926697 1.738678
											}
										}
									}
								}
								JOINT newVegas:RightHandIndex1
								{
									OFFSET -18.578728 -0.527832 5.208049
									CHANNELS 3 Xrotation Yrotation Zrotation
									JOINT newVegas:RightHandIndex2
									{
										OFFSET -3.192009 0.000000 0.000000
										CHANNELS 3 Xrotation Yrotation Zrotation
										JOINT newVegas:RightHandIndex3
										{
											OFFSET -3.835129 0.000000 0.000000
											CHANNELS 3 Xrotation Yrotation Zrotation
											End Site
											{
												OFFSET 0.034599 3.816971 0.371180
											}
										}
									}
								}
								JOINT newVegas:RightHandMiddle1
								{
									OFFSET -18.476105 0.000000 0.000000
									CHANNELS 3 Xrotation Yrotation Zrotation
									JOINT newVegas:RightHandMiddle2
									{
										OFFSET -3.324875 0.000000 0.000000
										CHANNELS 3 Xrotation Yrotation Zrotation
										JOINT newVegas:RightHandMiddle3
										{
											OFFSET -4.596550 0.000000 0.000000
											CHANNELS 3 Xrotation Yrotation Zrotation
											End Site
											{
												OFFSET -0.057701 4.578827 0.399218
											}
										}
									}
								}
								JOINT newVegas:RightHandRing1
								{
									OFFSET -17.732719 0.121887 -4.201567
									CHANNELS 3 Xrotation Yrotation Zrotation
									JOINT newVegas:RightHandRing2
									{
										OFFSET -2.733170 0.000000 0.000000
										CHANNELS 3 Xrotation Yrotation Zrotation
										JOINT newVegas:RightHandRing3
										{
											OFFSET -3.178268 0.000000 0.000000
											CHANNELS 3 Xrotation Yrotation Zrotation
											End Site
											{
												OFFSET -0.119102 3.170624 0.185394
											}
										}
									}
								}
								JOINT newVegas:RightHandPinky1
								{
									OFFSET -15.989624 -0.606689 -7.535461
									CHANNELS 3 Xrotation Yrotation Zrotation
									JOINT newVegas:RightHandPinky2
									{
										OFFSET -2.538986 0.000000 0.000000
										CHANNELS 3 Xrotation Yrotation Zrotation
										JOINT newVegas:RightHandPinky3
										{
											OFFSET -2.593102 0.000000 0.000000
											CHANNELS 3 Xrotation Yrotation Zrotation
											End Site
											{
												OFFSET 0.150902 2.584198 0.152708
											}
										}
									}
								}
							}
							JOINT newVegas:Right_CapeC
							{
								OFFSET -15.715958 -8.608795 -6.935905
								CHANNELS 3 Xrotation Yrotation Zrotation
								JOINT newVegas:Right_CapeC1
								{
									OFFSET 0.000000 -8.688499 0.000000
									CHANNELS 3 Xrotation Yrotation Zrotation
									End Site
									{
										OFFSET 0.000000 8.688499 0.000000
									}
								}
							}
							JOINT newVegas:Right_Sleeve
							{
								OFFSET -0.267448 -0.649994 0.577675
								CHANNELS 3 Xrotation Yrotation Zrotation
								End Site
								{
									OFFSET 0.000000 15.991302 0.000000
								}
							}
						}
						JOINT newVegas:Right_CapeA
						{
							OFFSET -5.115540 -8.608795 -10.395824
							CHANNELS 3 Xrotation Yrotation Zrotation
							JOINT newVegas:Right_CapeA1
							{
								OFFSET 0.000000 -8.688499 0.000000
								CHANNELS 3 Xrotation Yrotation Zrotation
								End Site
								{
									OFFSET 0.000000 8.688499 0.000000
								}
							}
						}
						JOINT newVegas:Right_CapeB
						{
							OFFSET -26.118187 -8.608795 -7.079266
							CHANNELS 3 Xrotation Yrotation Zrotation
							JOINT newVegas:Right_CapeB1
							{
								OFFSET 0.000000 -8.688499 0.000000
								CHANNELS 3 Xrotation Yrotation Zrotation
								End Site
								{
									OFFSET 0.000000 8.688499 0.000000
								}
							}
						}
					}
				}
				JOINT newVegas:Left_Collar
				{
					OFFSET 18.625099 8.655502 8.828100
					CHANNELS 3 Xrotation Yrotation Zrotation
					JOINT newVegas:Left_Collar1
					{
						OFFSET 14.783401 10.540405 -1.259500
						CHANNELS 3 Xrotation Yrotation Zrotation
						End Site
						{
							OFFSET 0.000000 18.199875 0.000000
						}
					}
				}
				JOINT newVegas:Collar_Back
				{
					OFFSET 0.000000 15.630707 -20.132601
					CHANNELS 3 Xrotation Yrotation Zrotation
					End Site
					{
						OFFSET 0.000000 22.523010 0.000000
					}
				}
				JOINT newVegas:Left_Peck
				{
					OFFSET 17.239599 -5.132599 25.482599
					CHANNELS 3 Xrotation Yrotation Zrotation
					End Site
					{
						OFFSET 0.000000 22.523010 0.000000
					}
				}
				JOINT newVegas:Right_Peck
				{
					OFFSET -17.239599 -5.132202 25.482599
					CHANNELS 3 Xrotation Yrotation Zrotation
					End Site
					{
						OFFSET 0.000000 22.523010 0.000000
					}
				}
				JOINT newVegas:Right_Collar
				{
					OFFSET -18.625099 8.655792 8.828100
					CHANNELS 3 Xrotation Yrotation Zrotation
					JOINT newVegas:Right_Collar1
					{
						OFFSET -14.783401 10.539993 -1.259500
						CHANNELS 3 Xrotation Yrotation Zrotation
						End Site
						{
							OFFSET 0.000000 18.199631 0.000000
						}
					}
				}
			}
		}
		JOINT newVegas:Belly
		{
			OFFSET 0.000000 -6.540398 9.014299
			CHANNELS 3 Xrotation Yrotation Zrotation
			End Site
			{
				OFFSET 0.000000 11.566666 0.000000
			}
		}
	}
	JOINT newVegas:ElvisFacialAnim_Joint
	{
		OFFSET 1.000000 -95.330101 -8.825800
		CHANNELS 3 Xrotation Yrotation Zrotation
		End Site
		{
			OFFSET 0.000000 35.315800 0.000000
		}
	}
}
MOTION
Frames: 4
Frame Time: 0.033333
3.329759 83.691833 -2.364930 -3.978855 -47.502296 3.114236 0.000000 -0.000000 -0.000000 -36.130816 7.026947 20.572620 40.775345 -6.798492 1.161100 -0.127417 1.850741 -18.523406 0.000000 -0.000002 -0.000000 -0.000000 0.000000 0.000002 -33.471605 7.316888 -24.550044 63.075889 -2.415445 -5.294411 -20.103714 -6.186116 22.732350 0.000000 0.000000 0.000000 -0.000000 0.000001 -0.000004 11.598543 0.644477 -2.038525 18.611058 0.641809 -5.647186 18.621128 0.622525 -5.676578 4.799228 0.156882 -0.307054 4.799214 0.156894 -0.307067 0.000003 -0.000000 0.000001 4.799209 0.156911 -0.307059 4.799278 0.156883 -0.307059 -0.000004 0.000000 -0.000000 0.000003 -0.000000 0.000001 -0.158571 -7.679761 3.251395 -18.958404 8.972386 -51.121825 -0.000150 -101.790241 -0.000140 -17.597298 13.120976 0.001302 -7.544914 6.988143 19.211405 21.926068 45.701486 -26.497234 0.000002 -0.000002 0.000002 14.349886 8.881737 -85.659301 7.237432 5.684998 -103.729263 -0.000002 0.000001 -0.000002 9.430510 8.010452 -93.319167 6.399010 5.825407 -95.382840 -0.000001 -0.000001 -0.000002 4.637400 8.144610 -87.223893 7.384988 5.647078 -105.223634 -0.000002 0.000001 0.000002 -2.512738 7.818478 -87.197330 7.241020 5.684098 -103.765627 -0.000001 -0.000003 -0.000000 -0.000000 0.000000 0.000003 -0.000000 0.000000 0.000003 -0.000001 -0.000000 0.000003 0.000000 -0.000002 -0.000001 0.000001 -0.000003 -0.000004 0.000000 -0.000002 -0.000001 -0.000000 -0.000001 0.000001 9.500406 27.772260 7.572543 -44.252710 37.938426 41.633097 0.000146 108.716244 -0.000130 -28.987347 18.661684 14.423249 -11.124097 -2.507390 -15.307559 21.261293 -35.358452 23.344371 -0.000000 -0.000003 0.000001 16.426398 -7.306512 88.428308 4.584910 -4.656622 89.109906 -0.000001 0.000000 -0.000002 8.666546 -6.515558 96.529329 4.338201 -4.646237 86.068552 0.000001 -0.000001 -0.000005 0.910463 -6.763881 87.312992 5.340361 -4.606884 98.444650 -0.000002 -0.000001 -0.000001 -8.376829 -6.034841 85.818451 4.782519 -4.655471 91.544226 0.000000 0.000003 0.000000 0.000001 -0.000001 -0.000002 -0.000000 -0.000001 -0.000001 0.000001 -0.000001 -0.000001 0.000000 0.000001 -0.000001 0.000001 0.000000 -0.000001 0.000000 0.000001 -0.000001 0.000001 -0.000000 -0.000001 -0.000003 -0.000002 0.000002 -0.000003 -0.000002 0.000002 -0.000003 -0.000002 0.000002 -0.000003 -0.000002 0.000002 -0.000003 -0.000002 0.000002 -0.000003 -0.000002 0.000002 -0.000003 -0.000002 0.000002 -0.000000 0.000002 -0.000000 0.000000 -0.000000 -0.000000 
2.588929 84.225372 -2.119285 -4.859067 -47.532099 2.796994 -0.000000 0.000000 -0.000001 -33.692043 7.710466 20.215031 38.569597 -6.686309 1.389654 0.318703 1.690695 -19.013080 -0.000000 -0.000003 0.000000 -0.000000 0.000000 -0.000000 -31.535864 6.998515 -24.093865 62.121691 -3.233105 -6.067820 -20.498817 -6.410712 23.144076 0.000000 0.000001 0.000000 0.000003 0.000001 -0.000001 11.051781 0.822024 -1.789161 18.092749 0.948191 -5.388448 18.102216 0.928558 -5.412384 4.434329 0.178597 -0.363344 4.434333 0.178613 -0.363359 -0.000000 -0.000001 -0.000000 4.434348 0.178578 -0.363341 4.434380 0.178638 -0.363350 -0.000002 -0.000001 -0.000000 -0.000000 -0.000001 -0.000002 -0.044609 -6.312182 3.347172 -20.399284 10.495857 -51.319842 -0.000112 -105.884851 -0.000115 -16.356452 11.582018 -1.278567 -6.955565 7.628827 18.490736 22.685614 44.537936 -26.684788 0.000004 -0.000001 0.000001 15.022666 8.753850 -86.764515 7.256326 5.680377 -103.919928 -0.000001 -0.000001 0.000001 9.927284 7.931067 -94.140607 6.470496 5.818280 -96.087579 -0.000000 -0.000004 0.000002 4.814853 8.169345 -88.294955 7.470491 5.623226 -106.094401 0.000002 -0.000001 -0.000001 -2.569389 7.947071 -88.104727 7.237892 5.684859 -103.733928 -0.000001 -0.000003 -0.000003 0.000003 -0.000001 -0.000001 0.000003 -0.000001 -0.000001 0.000003 -0.000001 -0.000001 0.000001 0.000003 0.000001 0.000002 0.000002 -0.000002 0.000001 0.000003 0.000001 0.000001 0.000002 0.000003 9.467676 27.711162 7.667374 -42.754505 37.678926 41.344125 0.000093 109.062972 -0.000086 -29.188964 17.965556 14.619383 -10.872997 -2.855357 -15.685260 21.823872 -35.699196 23.603868 -0.000000 -0.000000 -0.000006 16.734710 -7.279883 88.605756 4.725550 -4.656659 90.842438 0.000001 -0.000002 -0.000001 8.902551 -6.489779 96.519951 4.476221 -4.653636 87.770970 -0.000001 0.000004 -0.000004 1.243360 -6.813442 87.922566 5.467973 -4.586167 100.037075 0.000001 0.000004 -0.000002 -8.041606 -6.188927 86.413641 4.879582 -4.651853 92.740520 0.000001 -0.000002 -0.000002 -0.000001 -0.000003 0.000002 -0.000000 -0.000003 0.000003 -0.000001 -0.000004 0.000000 -0.000001 0.000001 -0.000001 -0.000001 0.000002 -0.000001 -0.000001 0.000001 -0.000001 -0.000000 0.000002 -0.000001 0.000003 -0.000000 -0.000000 0.000003 -0.000000 -0.000000 0.000003 -0.000000 -0.000000 0.000003 -0.000000 -0.000000 0.000003 -0.000000 -0.000000 0.000003 -0.000000 -0.000000 0.000003 -0.000000 -0.000000 -0.000000 -0.000001 -0.000000 -0.000000 0.000000 -0.000001 
2.042097 84.654175 -1.855992 -5.220446 -47.564181 2.801168 0.000000 0.000000 -0.000001 -31.913372 8.193619 19.827324 36.746520 -6.462104 1.522105 0.725533 1.532045 -19.341327 -0.000000 -0.000001 -0.000000 0.000000 -0.000004 0.000000 -30.268902 6.598230 -24.103857 61.194977 -3.846970 -6.446715 -20.724180 -6.143645 23.407072 0.000000 -0.000001 0.000000 0.000001 0.000001 -0.000004 10.497164 0.888939 -1.613497 17.518342 1.098914 -5.218165 17.527088 1.080492 -5.238387 4.094791 0.228232 -0.411137 4.094772 0.228226 -0.411134 0.000001 0.000003 -0.000001 4.094807 0.228226 -0.411131 4.094838 0.228258 -0.411135 -0.000001 0.000001 -0.000001 0.000001 0.000003 -0.000001 0.019916 -5.552106 3.383963 -21.785436 12.013954 -50.913354 -0.000042 -110.006234 -0.000039 -14.370981 9.943303 -2.508055 -6.339491 8.124414 17.698285 23.327072 43.430386 -26.762435 0.000002 0.000000 0.000001 15.662954 8.628978 -87.709307 7.278328 5.674879 -104.142483 0.000000 0.000002 -0.000000 10.420493 7.841231 -94.927827 6.546365 5.809710 -96.836735 -0.000001 -0.000000 0.000002 4.997738 8.189205 -89.344728 7.555879 5.597994 -106.967634 0.000001 0.000003 0.000003 -2.640446 8.070978 -88.960215 7.236614 5.685172 -103.721033 0.000002 -0.000002 -0.000000 0.000001 -0.000002 -0.000001 0.000001 -0.000002 -0.000001 0.000000 -0.000002 -0.000001 -0.000001 -0.000003 -0.000001 -0.000000 -0.000003 -0.000004 -0.000001 -0.000003 -0.000001 -0.000002 -0.000002 -0.000001 9.395608 27.571046 7.856817 -41.528332 37.391027 41.202160 0.000131 109.583091 -0.000141 -28.934928 17.610482 14.240549 -10.583635 -3.069947 -16.046636 22.353317 -36.009614 23.832630 0.000000 -0.000002 -0.000008 17.043395 -7.241598 88.827833 4.871101 -4.652265 92.635752 0.000000 -0.000002 -0.000000 9.153925 -6.447425 96.727240 4.610384 -4.656917 89.423869 -0.000001 -0.000002 -0.000002 1.575863 -6.859276 88.585477 5.592857 -4.562383 101.602711 -0.000003 0.000002 -0.000001 -7.723261 -6.329654 86.983149 4.975637 -4.646275 93.925729 0.000000 0.000002 -0.000001 0.000000 0.000002 0.000002 0.000002 0.000001 0.000002 0.000000 0.000001 0.000000 0.000001 -0.000001 0.000001 0.000001 0.000000 0.000001 0.000001 -0.000001 0.000001 0.000001 -0.000000 0.000001 0.000001 0.000003 -0.000003 0.000001 0.000003 -0.000003 0.000001 0.000003 -0.000003 0.000001 0.000003 -0.000003 0.000001 0.000003 -0.000003 0.000001 0.000003 -0.000003 0.000001 0.000003 -0.000003 -0.000000 0.000001 -0.000000 0.000000 0.000000 -0.000001 
1.600913 84.986717 -1.592989 -5.590410 -47.916741 2.672654 -0.000000 -0.000000 0.000000 -30.478070 8.830508 19.882066 35.557671 -6.399692 1.387561 0.809612 1.442332 -19.433447 -0.000000 -0.000001 -0.000000 0.000001 0.000001 -0.000001 -29.379444 6.290817 -24.100340 60.388633 -4.078783 -6.733831 -20.814250 -5.786792 23.508118 0.000000 -0.000001 -0.000000 0.000003 -0.000001 0.000000 10.024708 0.960745 -1.546036 17.031434 1.251516 -5.118082 17.039097 1.235744 -5.135272 3.759590 0.282976 -0.444339 3.759608 0.282976 -0.444345 -0.000000 -0.000002 0.000002 3.759565 0.282977 -0.444345 3.759620 0.282979 -0.444332 -0.000002 0.000001 0.000000 -0.000000 -0.000002 0.000000 0.027572 -5.293091 3.563617 -23.053680 13.181976 -50.419579 -0.000007 -113.746924 -0.000003 -12.471904 9.399478 -3.382903 -5.632172 8.525054 16.794839 23.842027 42.327683 -26.785459 -0.000001 0.000000 -0.000004 16.475779 8.478446 -88.716508 7.304513 5.668295 -104.407255 0.000001 -0.000002 -0.000000 10.934292 7.720042 -95.932070 6.619925 5.800493 -97.563918 -0.000003 0.000001 0.000000 5.212111 8.205654 -90.506680 7.637474 5.572552 -107.806162 -0.000001 0.000001 -0.000001 -2.695711 8.202950 -89.847300 7.231824 5.686345 -103.672873 -0.000004 -0.000002 0.000002 0.000003 -0.000000 -0.000001 0.000003 -0.000000 -0.000001 0.000002 -0.000000 -0.000001 -0.000001 -0.000001 -0.000004 -0.000000 -0.000002 -0.000005 -0.000001 -0.000001 -0.000004 -0.000001 0.000000 -0.000004 9.410206 27.354037 7.783653 -40.803779 37.265000 41.318174 -0.000008 109.937065 -0.000004 -28.622857 17.725956 13.967816 -10.282866 -2.976602 -16.330274 22.823757 -36.267567 24.012744 0.000001 0.000001 0.000001 17.359655 -7.165691 89.207905 5.011136 -4.643730 94.363715 0.000000 0.000001 0.000003 9.416937 -6.397054 97.001582 4.744415 -4.656337 91.074651 -0.000001 0.000002 0.000003 1.909494 -6.902789 89.347125 5.715160 -4.535656 103.144681 -0.000001 -0.000001 0.000005 -7.389180 -6.506345 87.750411 5.073803 -4.638518 95.138217 -0.000002 0.000002 0.000001 0.000002 0.000001 -0.000001 0.000002 -0.000002 0.000000 0.000002 0.000001 -0.000000 0.000001 -0.000001 0.000001 0.000001 0.000000 0.000001 0.000001 -0.000001 0.000001 0.000001 -0.000000 0.000001 0.000001 0.000001 -0.000001 0.000001 0.000001 -0.000001 0.000001 0.000001 -0.000001 0.000001 0.000001 -0.000001 0.000001 0.000001 -0.000001 0.000001 0.000001 -0.000001 0.000001 0.000001 -0.000001 -0.000001 -0.000001 0.000000 -0.000000 -0.000000 0.000000 
